<svg xmlns="http://www.w3.org/2000/svg" viewBox="0 0 92.74 119.39"><defs><style>.cls-1{fill:#07f;}</style></defs><g id="레이어_2" data-name="레이어 2"><g id="레이어_1-2" data-name="레이어 1"><g id="그룹_1202" data-name="그룹 1202"><path id="패스_2585" data-name="패스 2585" class="cls-1" d="M92.52,68.49h0L86.92,6.34A7,7,0,0,0,79.36,0,6.88,6.88,0,0,0,76.44,1L22.84,32.76h0A46.22,46.22,0,0,0,5,51.7a46.89,46.89,0,0,0,18.16,61.47,46.38,46.38,0,0,0,63.36-17c.41-.7.79-1.41,1.16-2.13A46.31,46.31,0,0,0,92.52,68.49ZM45.3,98A21.57,21.57,0,0,1,28.23,64.83h0L43.66,40.35a3.2,3.2,0,0,1,4.43-1,3.24,3.24,0,0,1,1,1L64.55,64.83h0A21.57,21.57,0,0,1,46.41,98c-.38,0-.75,0-1.12,0Z"/></g></g></g></svg>